<?xml version="1.0" encoding="iso-8859-1"?>
<!-- Generator: Adobe Illustrator 19.0.0, SVG Export Plug-In . SVG Version: 6.00 Build 0)  -->
<svg version="1.1" id="Capa_1" xmlns="http://www.w3.org/2000/svg" xmlns:xlink="http://www.w3.org/1999/xlink" x="0px" y="0px"
	 viewBox="0 0 447.534 447.534" style="enable-background:new 0 0 447.534 447.534;" xml:space="preserve">
<g>
	<g>
		<path d="M235.267,0h-24c-6.627,0-12,5.373-12,12v56c0,6.628,5.374,12,12,12h24c6.629,0,12-5.372,12-12V12
			C247.267,5.373,241.896,0,235.267,0z"/>
	</g>
</g>
<g>
	<g>
		<rect x="179.271" y="4.004" width="12" height="16"/>
	</g>
</g>
<g>
	<g>
		<rect x="179.271" y="31.972" width="12" height="16"/>
	</g>
</g>
<g>
	<g>
		<rect x="179.271" y="59.996" width="12" height="16"/>
	</g>
</g>
<g>
	<g>
		<rect x="255.263" y="4.004" width="12" height="16"/>
	</g>
</g>
<g>
	<g>
		<rect x="255.263" y="31.972" width="12" height="16"/>
	</g>
</g>
<g>
	<g>
		<rect x="255.263" y="59.996" width="12" height="16"/>
	</g>
</g>
<g>
	<g>
		<path d="M306.654,303.892c-12.344-14.81-11.51-35.116-5.855-53.55c2.047-6.682,2.969-12.101,2.969-18.808
			c0-31.813-17.131-47.908-49.172-53.526l0.672,17.727c0,11.028-8.973,20-20,20h-24c-11.027,0-20-8.972-19.994-20.304l0.656-17.28
			c-31.416,5.774-48.162,21.89-48.162,53.382c0,6.707,0.922,12.126,2.969,18.808c5.654,18.434,6.49,38.739-5.855,53.55
			c-12.474,14.964-25.114,35.705-25.114,55.642c0,60,40.703,88.176,108,88c67.297,0.176,108-28,108-88
			C331.767,339.597,319.129,318.855,306.654,303.892z M255.767,351.534h-64v-16h64V351.534z M223.978,299.067
			c-17.676,0-32.004-14.328-32.004-32.004c0-17.676,14.328-32.005,32.004-32.005c17.676,0,32.004,14.329,32.004,32.005
			C255.982,284.739,241.654,299.067,223.978,299.067z"/>
	</g>
</g>
<g>
	<g>
		<path d="M243.618,99.636c-0.195-6.483-5.508-11.637-11.992-11.637H214.91c-6.486,0-11.799,5.154-11.994,11.637l-3.649,96.1
			c0.001,6.628,5.374,12,12.001,12h24c6.629,0,12-5.372,12-12L243.618,99.636z"/>
	</g>
</g>
<g>
</g>
<g>
</g>
<g>
</g>
<g>
</g>
<g>
</g>
<g>
</g>
<g>
</g>
<g>
</g>
<g>
</g>
<g>
</g>
<g>
</g>
<g>
</g>
<g>
</g>
<g>
</g>
<g>
</g>
</svg>
