<svg height="512pt" viewBox="-82 0 512 512" width="512pt" xmlns="http://www.w3.org/2000/svg"><path d="m79.148438 231.261719c2 22.523437 8.75 50.828125 19.640624 69.738281h155.953126c11.457031-19.859375 18.324218-50.425781 19.867187-73.46875-30.710937 17.957031-65.332031 27.539062-101.046875 27.539062-33.164062 0-65.390625-8.253906-94.414062-23.808593zm0 0"/><path d="m297.484375 122.390625c-33.683594 8.773437-77.691406 13.609375-123.921875 13.609375s-90.242188-4.835938-123.921875-13.609375c-16.710937-4.355469-30.449219-9.527344-41.632813-15.671875 4.671876 13.851562 11.316407 27.292969 19.738282 39.886719 43.832031 13.910156 94.191406 21.390625 145.796875 21.390625 51.632812 0 102.003906-7.488282 145.84375-21.402344 8.417969-12.59375 15.058593-26.027344 19.726562-39.878906-11.179687 6.148437-24.921875 11.320312-41.628906 15.675781zm0 0"/><path d="m173.542969 197.996094c-37.308594 0-74.089844-3.730469-108.578125-10.820313 31.253906 25.195313 69.183594 38.894531 108.597656 38.894531 39.421875 0 77.355469-13.703124 108.609375-38.902343-34.503906 7.09375-71.300781 10.828125-108.628906 10.828125zm0 0"/><path d="m88.574219 368.867188 26.386719 14.222656 57.671874-16.40625c2.683594-.761719 5.523438-.761719 8.207032 0l57.671875 16.402344 26.375-14.253907-7.078125-37.832031h-162.148438zm0 0"/><path d="m240.273438 414.183594c-1.375 0-2.753907-.1875-4.101563-.570313l-59.4375-16.90625-59.425781 16.90625c-3.757813 1.066407-7.785156.628907-11.222656-1.226562l-23.304688-12.5625-15.558594 83.183593c-1.316406 7.785157 3.628906 15.253907 11.308594 17.085938 33.285156 7.9375 66.445312 11.90625 99.253906 11.90625 32.859375 0 65.371094-3.980469 97.296875-11.945312 7.601563-1.894532 12.464844-9.320313 11.160157-17.046876l-15.5625-83.207031-23.273438 12.578125c-2.210938 1.195313-4.664062 1.804688-7.132812 1.804688zm0 0"/><path d="m0 54.667969c0 18.203125 19.316406 32.402343 57.417969 42.207031 31.222656 8.035156 72.46875 12.460938 116.144531 12.460938s84.921875-4.425782 116.144531-12.460938c38.097657-9.804688 57.417969-24.003906 57.417969-42.207031s-19.320312-32.40625-57.417969-42.207031c-31.222656-8.035157-72.46875-12.460938-116.144531-12.460938s-84.921875 4.425781-116.144531 12.460938c-38.101563 9.800781-57.417969 24.003906-57.417969 42.207031zm0 0"/></svg>