<?xml version="1.0" encoding="UTF-8"?>
<svg xmlns="http://www.w3.org/2000/svg" viewBox="0 0 512 512" width="512" height="512"><g id="outline"><path d="M478.333,101.17a24,24,0,0,0-22.627-42.333L274.524,155.68a45.814,45.814,0,0,0-27.2,5.465c-9.055,4.839-16.2,12.134-20.121,20.54-4.182,8.967-4.24,18.541-.181,26.315H48a8,8,0,0,0-8,8v32a8,8,0,0,0,8,8V448a8,8,0,0,0-8,8v32a8,8,0,0,0,8,8H464a8,8,0,0,0,8-8V456a8,8,0,0,0-8-8V256a8,8,0,0,0,8-8V216a8,8,0,0,0-8-8H290.126a41.918,41.918,0,0,0,7.026-9.988ZM240,224l-8,10.667L224,224Zm32,32v0a32.057,32.057,0,0,0,24,30.987V417.013A32.057,32.057,0,0,0,272,448H240a32.057,32.057,0,0,0-24-30.987V286.987A32.057,32.057,0,0,0,240,256Zm-24-16,8-10.667L264,240Zm24-16h16l-8,10.667ZM408,417.013V286.987A32.057,32.057,0,0,0,432,256h16V448H432A32.057,32.057,0,0,0,408,417.013ZM416,448H384a16,16,0,0,1,32,0ZM400,272a16.019,16.019,0,0,1-16-16h32A16.019,16.019,0,0,1,400,272Zm-8,14.987V417.013A32.057,32.057,0,0,0,368,448H336a32.057,32.057,0,0,0-24-30.987V286.989A32.057,32.057,0,0,0,336,256v0h32A32.057,32.057,0,0,0,392,286.987ZM320,448H288a16,16,0,0,1,32,0ZM104,286.987V417.013A32.057,32.057,0,0,0,80,448H64V256H80A32.057,32.057,0,0,0,104,286.987ZM96,256h32a16,16,0,0,1-32,0Zm16,176a16.019,16.019,0,0,1,16,16H96A16.019,16.019,0,0,1,112,432Zm8-14.987V286.987A32.057,32.057,0,0,0,144,256h32a32.057,32.057,0,0,0,24,30.987V417.013A32.057,32.057,0,0,0,176,448H144A32.057,32.057,0,0,0,120,417.013ZM192,256h32a16,16,0,0,1-32,0Zm16,176a16.019,16.019,0,0,1,16,16H192A16.019,16.019,0,0,1,208,432Zm0-202.667L216,240H200ZM192,224l-8,10.667L176,224Zm-32,5.333L168,240H152ZM144,224l-8,10.667L128,224Zm-32,5.333L120,240H104ZM96,224l-8.865,11.821L75.314,224Zm-40,3.314L68.686,240H56ZM56,480V467.314L68.686,480Zm31.135-4.179L75.314,464H96ZM104,480l8-10.667L120,480Zm32-5.333L128,464h6.541c.031,0,.062,0,.093,0s.033,0,.05,0H144ZM152,480l8-10.667L168,480Zm32-5.333L176,464h16ZM200,480l8-10.667L216,480Zm32-5.333L224,464h16ZM248,480l8-10.667L264,480Zm32-5.333L272,464h9.316c.017,0,.033,0,.05,0s.062,0,.093,0H288ZM296,480l8-10.667L312,480Zm32-5.333L320,464h16ZM344,480l8-10.667L360,480Zm32-5.333L368,464h16ZM392,480l8-10.667L408,480Zm32.865-4.179L416,464h20.686ZM456,480H443.314L456,467.314Zm0-252.686V240H443.314ZM436.686,224l-11.821,11.821L416,224ZM400,229.333,408,240H392ZM384,224l-8,10.667L368,224Zm-32,5.333L360,240H344ZM336,224l-8,10.667L320,224Zm-32,5.333L312,240H296ZM320,256v0a16.018,16.018,0,0,1-15.981,16h-.038A16.018,16.018,0,0,1,288,256v0Zm-32.786-70.818a8,8,0,0,0-3.651,4.069c-2.265,5.63-7.226,10.815-13.608,14.227-5.934,3.171-12.6,4.493-18.282,3.615-2.848-.438-7.989-1.854-10.426-6.413s-.758-9.62.461-12.232c2.43-5.212,7.228-10.02,13.162-13.192a31.609,31.609,0,0,1,14.669-3.882,22.989,22.989,0,0,1,4.72.472,8.01,8.01,0,0,0,5.412-.775L463.248,72.948h0a8,8,0,0,1,7.542,14.112Z"/><path d="M32.1,62.665l193.977,67.66a45.845,45.845,0,0,0,22.445,16.3,49.067,49.067,0,0,0,16.1,2.787,41.8,41.8,0,0,0,12.638-1.9c9.518-3.028,16.65-9.562,19.568-17.927s1.4-17.917-4.174-26.207c-5.174-7.7-13.362-13.8-23.055-17.181A45.838,45.838,0,0,0,241.886,85L47.909,17.344A24,24,0,0,0,32.1,62.665Zm.351-25.295a7.982,7.982,0,0,1,10.188-4.919h0l196.542,68.554a8,8,0,0,0,5.466-.071c5.677-2.147,12.852-2.013,19.684.371,6.354,2.216,11.837,6.224,15.044,11,1.608,2.391,4.05,7.132,2.347,12.012s-6.563,7.076-9.309,7.949c-5.48,1.742-12.268,1.47-18.621-.745-6.834-2.383-12.536-6.74-15.645-11.952a8,8,0,0,0-4.235-3.455L37.37,47.558A8,8,0,0,1,32.451,37.37Z"/><path d="M88,192a8,8,0,0,0,0-16H80a8,8,0,0,0,0,16Z"/><path d="M144,192a8,8,0,0,0,0-16H120a8,8,0,0,0,0,16Z"/><path d="M259.778,53.6l-4.672.363a8,8,0,1,0,1.241,15.951l4.671-.363a19.225,19.225,0,0,1,14.054,4.583,8,8,0,1,0,10.4-12.157A35.093,35.093,0,0,0,259.778,53.6Z"/><path d="M208,184a17.79,17.79,0,0,1,9.89-16l1.689-.845a8,8,0,0,0-7.158-14.31l-1.687.844A33.7,33.7,0,0,0,192,184a8,8,0,0,0,16,0Z"/></g></svg>
