<?xml version="1.0" encoding="iso-8859-1"?>
<!-- Generator: Adobe Illustrator 19.0.0, SVG Export Plug-In . SVG Version: 6.00 Build 0)  -->
<svg version="1.1" id="Capa_1" xmlns="http://www.w3.org/2000/svg" xmlns:xlink="http://www.w3.org/1999/xlink" x="0px" y="0px"
	 viewBox="0 0 512 512" style="enable-background:new 0 0 512 512;" xml:space="preserve">
<g>
	<g>
		<path d="M477.651,377.054C500.137,341.831,512,300.123,512,256c0-112.21-78.401-203.5-174.771-203.5h-162.45
			C78.405,52.5,0,143.79,0,256s78.405,203.5,174.779,203.5h162.45c42.448,0,82.917-17.741,114.767-50.116l23.265,23.265
			c3.869,3.876,9.019,6.012,14.499,6.012s10.63-2.135,14.494-6.007c7.993-7.994,7.993-21.001,0-28.996L477.651,377.054z
			 M200.188,67.5h44.516c-25.911,12.313-48.736,31.658-66.711,56h-19.796c-4.143,0-7.5,3.358-7.5,7.5c0,4.142,3.357,7.5,7.5,7.5
			h9.716c-19.079,31.304-30.744,69.135-32.023,110H40.55c1.383-41.493,14.185-79.579,34.798-110h50.724c4.143,0,7.5-3.358,7.5-7.5
			c0-4.142-3.357-7.5-7.5-7.5H86.66C115.639,88.945,155.829,67.5,200.188,67.5z M150.76,255.999
			c0-74.317,36.648-138.719,89.738-169.395C193.497,123.116,162.47,185.415,162.47,256c0,70.577,31.02,132.869,78.012,169.384
			c-20.21-11.681-38.033-28.249-52.36-48.392c-0.171-0.27-0.353-0.531-0.556-0.775C164.592,343.564,150.76,301.653,150.76,255.999z
			 M167.915,373.5H75.35c-20.614-30.421-33.416-68.507-34.8-110h95.341C137.17,304.365,148.836,342.196,167.915,373.5z M15,256
			c0-71.798,34.205-134.341,84.396-166.161c-44.73,36.892-73.984,97.621-73.984,166.159c0,48.851,14.865,93.732,39.599,128.847
			c0.208,0.347,0.439,0.679,0.699,0.987c9.812,13.755,21.147,25.986,33.702,36.339C49.212,390.354,15,327.805,15,256z
			 M200.247,444.5c-0.02,0-0.039-0.003-0.058-0.003c-44.358,0-84.547-21.443-113.526-55.997h91.333
			c17.976,24.342,40.803,43.688,66.715,56H200.247z M493.642,422.052c-1.035,1.037-2.414,1.608-3.882,1.608
			c-1.468,0-2.847-0.571-3.887-1.613l-67.551-67.551c-2.929-2.929-7.677-2.929-10.607,0c-2.929,2.929-2.929,7.678,0,10.606
			l12.461,12.461c-23.36,23.873-52.571,36.937-82.947,36.937c-33.452,0-65.306-15.739-89.695-44.319
			C221.698,339.914,207.47,299.364,207.47,256s14.229-83.914,40.064-114.18c24.397-28.58,56.252-44.32,89.695-44.32
			c27.975,0,54.647,10.83,77.136,31.317c3.062,2.791,7.806,2.57,10.595-0.493c2.79-3.062,2.569-7.806-0.493-10.595
			C399.171,94.682,369.004,82.5,337.229,82.5c-37.904,0-73.811,17.608-101.104,49.581C207.974,165.06,192.47,209.069,192.47,256
			c0,46.931,15.504,90.94,43.655,123.918c27.284,31.973,63.19,49.582,101.104,49.582c34.427,0,67.37-14.617,93.554-41.329
			l10.605,10.605c-29.033,29.537-65.763,45.724-104.159,45.724c-88.092,0-159.76-84.561-159.76-188.5s71.668-188.5,159.76-188.5
			C425.327,67.5,497,152.061,497,256c0,40.076-10.429,77.962-30.231,110.172l-10.905-10.905C472.979,326.164,482,291.983,482,256
			c0-41.552-12.49-81.72-35.169-113.105c-2.427-3.358-7.114-4.112-10.472-1.687c-3.357,2.426-4.112,7.114-1.687,10.472
			C455.52,180.529,467,217.577,467,256c0,31.907-7.646,62.205-22.145,88.258l-44.942-44.942
			c2.589-12.124-0.807-25.282-10.206-34.682c-14.742-14.741-38.727-14.741-53.469,0c-7.141,7.141-11.073,16.635-11.073,26.734
			s3.933,19.593,11.073,26.733c7.142,7.141,16.636,11.074,26.734,11.074c2.712,0,5.379-0.293,7.97-0.846l14.148,14.148
			c1.465,1.464,3.385,2.197,5.304,2.197c1.919,0,3.839-0.732,5.304-2.197c2.929-2.929,2.929-7.678,0-10.606l-10.161-10.161
			c1.462-1.092,2.856-2.295,4.17-3.608c1.321-1.321,2.519-2.719,3.603-4.175l100.338,100.336
			C495.792,416.409,495.792,419.901,493.642,422.052z M379.099,307.495c-8.893,8.892-23.361,8.893-32.255,0
			c-4.308-4.308-6.68-10.035-6.68-16.127c0-6.092,2.372-11.819,6.681-16.127c4.446-4.446,10.286-6.669,16.127-6.669
			s11.681,2.223,16.127,6.669C387.992,284.134,387.992,298.603,379.099,307.495z"/>
	</g>
</g>
<g>
</g>
<g>
</g>
<g>
</g>
<g>
</g>
<g>
</g>
<g>
</g>
<g>
</g>
<g>
</g>
<g>
</g>
<g>
</g>
<g>
</g>
<g>
</g>
<g>
</g>
<g>
</g>
<g>
</g>
</svg>
