<svg id="Layer_1" enable-background="new 0 0 510.575 510.575" height="512" viewBox="0 0 510.575 510.575" width="512" xmlns="http://www.w3.org/2000/svg"><g><path d="m471.781 271.136c123.898-157.394-75.136-356.219-232.371-232.37l-.487-.487c-23.446-23.447-61.4-23.452-84.852 0l-86.677 86.677c-16.724-7.967-37.383-5.044-51.209 8.782v.001c-17.546 17.545-17.546 46.094 0 63.64 36.564 35.197 93.345-5.721 72.422-51.209l86.677-86.676c11.725-11.724 30.7-11.727 42.427 0l.487.487c-43.785 52.504-49.85 126.023-18.195 184.352l-42.513 42.513-22.5-22.501-111.968 111.966c-30.661 30.662-30.661 80.552 0 111.213 30.73 30.732 80.478 30.737 111.213 0l111.967-111.967-22.5-22.5 42.513-42.513c58.619 31.812 132.061 25.414 184.354-18.195l.487.487c11.696 11.697 11.696 30.729 0 42.427l-86.678 86.677c-16.724-7.966-37.382-5.045-51.208 8.782-17.546 17.546-17.546 46.094 0 63.64 17.545 17.544 46.094 17.544 63.639 0v-.001c13.827-13.827 16.749-34.485 8.782-51.209l86.678-86.677c23.394-23.394 23.394-61.459 0-84.853zm-413.17-94.972c-14.628 13.52-34.73-6.601-21.214-21.214v.001c5.85-5.848 15.366-5.849 21.214-.001 5.862 5.864 5.862 15.351 0 21.214zm296.984 296.984c-5.848 5.85-15.363 5.848-21.213 0-13.52-14.636 6.592-34.704 21.213-21.214 5.863 5.864 5.863 15.352 0 21.214zm-242.573-6.837c-19.007 19.008-49.777 19.011-68.787 0-18.964-18.964-18.964-49.822 0-68.787l90.754-90.753 68.787 68.787zm89.467-134.467-23.787-23.787 38.322-38.323c7.086 8.691 15.093 16.697 23.787 23.788zm47.04-70.827c-121.409-131.926 59.129-312.282 190.92-190.919 121.41 131.93-59.132 312.28-190.92 190.919z"/><path d="m419.235 91.311c-102.442-94.477-243.095 46.142-148.492 148.492 102.44 94.476 243.094-46.138 148.492-148.492zm-21.213 127.279c-29.242 29.242-76.824 29.242-106.066 0-67.598-73.181 32.965-173.524 106.066-106.066 29.308 29.309 29.315 76.752 0 106.066z"/></g></svg>