<svg id="Layer_1" enable-background="new 0 0 510 510" height="512" viewBox="0 0 510 510" width="512" xmlns="http://www.w3.org/2000/svg"><g><path d="m90 150v-105c0-8.271 6.729-15 15-15h120c8.271 0 15 6.729 15 15v30c0 24.813 20.186 45 45 45h120c24.813 0 45-20.187 45-45v-75h-30v75c0 8.271-6.729 15-15 15h-120c-8.272 0-15-6.729-15-15v-30c0-24.813-20.187-45-45-45h-120c-24.813 0-45 20.187-45 45v105h-60v360h510c0-4.329 0-344.258 0-360zm15 330h-75v-180h45v90h30zm0-120v-60h30v60zm135 120h-105v-90h30v-90h45v90h30zm0-120v-60h30v60zm135 120h-105v-90h30v-90h45v90h30zm0-120v-60h30v60zm105 120h-75v-90h30v-90h45zm-450-210v-90h450v90c-91.418 0-331.297 0-450 0z"/><path d="m420 210h30v30h-30z"/><path d="m360 210h30v30h-30z"/><path d="m300 210h30v30h-30z"/><path d="m240 210h30v30h-30z"/><path d="m180 210h30v30h-30z"/><path d="m120 210h30v30h-30z"/><path d="m60 210h30v30h-30z"/></g></svg>